<svg width="19" height="16" viewBox="0 0 19 16" fill="none" xmlns="http://www.w3.org/2000/svg">
<path d="M9.50005 3.61163L7.97099 2.13507C7.2017 1.36578 6.15831 0.933594 5.07036 0.933594C3.98242 0.933594 2.93903 1.36578 2.16974 2.13507C1.40045 2.90437 0.968262 3.94775 0.968262 5.0357C0.968262 6.12364 1.40045 7.16703 2.16974 7.93632L9.50005 15.3749L16.8304 7.9396C17.5997 7.17031 18.0318 6.12692 18.0318 5.03898C18.0318 3.95103 17.5997 2.90765 16.8304 2.13835C16.0611 1.36906 15.0177 0.936875 13.9297 0.936875C12.8418 0.936875 11.7984 1.36906 11.0291 2.13835L8.18755 4.87492L10.8126 7.49992L9.50005 8.81242" stroke="#2C2920" stroke-width="0.9" stroke-linecap="round" stroke-linejoin="round"/>
</svg>
