<svg width="392" height="530" viewBox="0 0 392 530" fill="none" xmlns="http://www.w3.org/2000/svg">
<rect width="392" height="530" fill="#F8F2E9"/>
<path d="M167.636 214.461C167.636 215.138 167.467 215.716 167.128 216.195C166.795 216.669 166.326 217.031 165.722 217.281C165.118 217.531 164.407 217.656 163.589 217.656C163.157 217.656 162.748 217.635 162.362 217.594C161.977 217.552 161.623 217.492 161.3 217.414C160.977 217.336 160.693 217.24 160.448 217.125V215.852C160.839 216.013 161.316 216.164 161.878 216.305C162.441 216.44 163.029 216.508 163.644 216.508C164.217 216.508 164.701 216.432 165.097 216.281C165.493 216.125 165.792 215.904 165.995 215.617C166.204 215.326 166.308 214.977 166.308 214.57C166.308 214.18 166.222 213.854 166.05 213.594C165.878 213.328 165.592 213.089 165.191 212.875C164.795 212.656 164.253 212.424 163.566 212.18C163.081 212.008 162.654 211.82 162.284 211.617C161.915 211.409 161.605 211.174 161.355 210.914C161.105 210.654 160.915 210.352 160.784 210.008C160.659 209.664 160.597 209.271 160.597 208.828C160.597 208.219 160.751 207.698 161.058 207.266C161.37 206.828 161.8 206.495 162.347 206.266C162.899 206.031 163.532 205.914 164.245 205.914C164.855 205.914 165.417 205.971 165.933 206.086C166.454 206.201 166.93 206.354 167.362 206.547L166.948 207.688C166.537 207.516 166.099 207.372 165.636 207.258C165.178 207.143 164.704 207.086 164.214 207.086C163.724 207.086 163.31 207.159 162.972 207.305C162.639 207.445 162.383 207.646 162.206 207.906C162.029 208.167 161.941 208.477 161.941 208.836C161.941 209.237 162.024 209.57 162.191 209.836C162.362 210.102 162.633 210.339 163.003 210.547C163.378 210.75 163.873 210.964 164.487 211.188C165.159 211.432 165.73 211.693 166.198 211.969C166.667 212.24 167.024 212.573 167.269 212.969C167.514 213.359 167.636 213.857 167.636 214.461ZM182.278 211.773C182.278 212.654 182.166 213.456 181.942 214.18C181.718 214.898 181.385 215.518 180.942 216.039C180.505 216.555 179.96 216.953 179.309 217.234C178.658 217.516 177.903 217.656 177.044 217.656C176.158 217.656 175.385 217.516 174.723 217.234C174.067 216.953 173.52 216.552 173.083 216.031C172.651 215.51 172.325 214.888 172.106 214.164C171.893 213.44 171.786 212.638 171.786 211.758C171.786 210.591 171.979 209.568 172.364 208.688C172.749 207.807 173.333 207.122 174.114 206.633C174.901 206.143 175.885 205.898 177.067 205.898C178.197 205.898 179.148 206.141 179.919 206.625C180.695 207.109 181.281 207.792 181.677 208.672C182.078 209.547 182.278 210.581 182.278 211.773ZM173.184 211.773C173.184 212.742 173.322 213.581 173.598 214.289C173.874 214.997 174.296 215.544 174.864 215.93C175.437 216.315 176.164 216.508 177.044 216.508C177.929 216.508 178.653 216.315 179.216 215.93C179.783 215.544 180.203 214.997 180.473 214.289C180.744 213.581 180.88 212.742 180.88 211.773C180.88 210.299 180.57 209.148 179.95 208.32C179.335 207.487 178.374 207.07 177.067 207.07C176.182 207.07 175.453 207.26 174.88 207.641C174.307 208.021 173.88 208.562 173.598 209.266C173.322 209.964 173.184 210.799 173.184 211.773ZM190.311 206.078C191.248 206.078 192.022 206.195 192.631 206.43C193.246 206.659 193.704 207.01 194.006 207.484C194.308 207.958 194.459 208.562 194.459 209.297C194.459 209.901 194.35 210.406 194.131 210.812C193.912 211.214 193.626 211.539 193.272 211.789C192.918 212.039 192.54 212.232 192.139 212.367L195.272 217.5H193.725L190.928 212.734H188.553V217.5H187.225V206.078H190.311ZM190.233 207.227H188.553V211.609H190.366C191.298 211.609 191.983 211.419 192.42 211.039C192.863 210.659 193.084 210.099 193.084 209.359C193.084 208.583 192.85 208.034 192.381 207.711C191.918 207.388 191.202 207.227 190.233 207.227ZM202.586 206.078C203.523 206.078 204.297 206.195 204.906 206.43C205.521 206.659 205.979 207.01 206.281 207.484C206.583 207.958 206.734 208.562 206.734 209.297C206.734 209.901 206.625 210.406 206.406 210.812C206.188 211.214 205.901 211.539 205.547 211.789C205.193 212.039 204.815 212.232 204.414 212.367L207.547 217.5H206L203.203 212.734H200.828V217.5H199.5V206.078H202.586ZM202.508 207.227H200.828V211.609H202.641C203.573 211.609 204.258 211.419 204.695 211.039C205.138 210.659 205.359 210.099 205.359 209.359C205.359 208.583 205.125 208.034 204.656 207.711C204.193 207.388 203.477 207.227 202.508 207.227ZM214.689 211.805L217.728 206.078H219.158L215.353 213.07V217.5H214.025V213.133L210.212 206.078H211.666L214.689 211.805ZM222.738 216.688C222.738 216.323 222.826 216.065 223.003 215.914C223.18 215.758 223.396 215.68 223.652 215.68C223.917 215.68 224.141 215.758 224.323 215.914C224.506 216.065 224.597 216.323 224.597 216.688C224.597 217.047 224.506 217.31 224.323 217.477C224.141 217.638 223.917 217.719 223.652 217.719C223.396 217.719 223.18 217.638 223.003 217.477C222.826 217.31 222.738 217.047 222.738 216.688ZM229.341 216.688C229.341 216.323 229.429 216.065 229.606 215.914C229.783 215.758 229.999 215.68 230.255 215.68C230.52 215.68 230.744 215.758 230.927 215.914C231.109 216.065 231.2 216.323 231.2 216.688C231.2 217.047 231.109 217.31 230.927 217.477C230.744 217.638 230.52 217.719 230.255 217.719C229.999 217.719 229.783 217.638 229.606 217.477C229.429 217.31 229.341 217.047 229.341 216.688ZM132.597 258.5H131.257L125.809 250.105H125.754C125.768 250.329 125.784 250.584 125.802 250.871C125.821 251.154 125.834 251.457 125.843 251.78C125.857 252.099 125.864 252.425 125.864 252.758V258.5H124.784V248.506H126.117L131.544 256.873H131.592C131.583 256.714 131.572 256.488 131.558 256.196C131.544 255.9 131.531 255.583 131.517 255.246C131.508 254.904 131.503 254.588 131.503 254.296V248.506H132.597V258.5ZM142.454 254.74C142.454 255.355 142.374 255.905 142.215 256.388C142.055 256.871 141.825 257.279 141.524 257.611C141.223 257.944 140.859 258.199 140.43 258.377C140.007 258.55 139.526 258.637 138.988 258.637C138.487 258.637 138.026 258.55 137.607 258.377C137.192 258.199 136.832 257.944 136.527 257.611C136.226 257.279 135.992 256.871 135.823 256.388C135.659 255.905 135.577 255.355 135.577 254.74C135.577 253.92 135.716 253.223 135.994 252.648C136.272 252.07 136.668 251.63 137.183 251.329C137.703 251.024 138.32 250.871 139.036 250.871C139.719 250.871 140.316 251.024 140.827 251.329C141.342 251.634 141.741 252.076 142.023 252.655C142.31 253.229 142.454 253.924 142.454 254.74ZM136.753 254.74C136.753 255.342 136.832 255.864 136.992 256.306C137.151 256.748 137.398 257.09 137.73 257.331C138.063 257.573 138.491 257.693 139.015 257.693C139.535 257.693 139.961 257.573 140.294 257.331C140.631 257.09 140.879 256.748 141.039 256.306C141.198 255.864 141.278 255.342 141.278 254.74C141.278 254.143 141.198 253.628 141.039 253.195C140.879 252.758 140.633 252.421 140.301 252.184C139.968 251.947 139.537 251.828 139.009 251.828C138.229 251.828 137.657 252.086 137.293 252.601C136.933 253.116 136.753 253.829 136.753 254.74ZM150.867 251.008V258.5H149.732V251.008H150.867ZM150.314 248.205C150.5 248.205 150.66 248.267 150.792 248.39C150.929 248.508 150.997 248.695 150.997 248.95C150.997 249.201 150.929 249.388 150.792 249.511C150.66 249.634 150.5 249.695 150.314 249.695C150.118 249.695 149.953 249.634 149.821 249.511C149.694 249.388 149.63 249.201 149.63 248.95C149.63 248.695 149.694 248.508 149.821 248.39C149.953 248.267 150.118 248.205 150.314 248.205ZM162.248 250.871C163.073 250.871 163.695 251.088 164.114 251.521C164.534 251.949 164.743 252.639 164.743 253.592V258.5H163.622V253.646C163.622 253.04 163.49 252.587 163.226 252.286C162.966 251.981 162.579 251.828 162.064 251.828C161.339 251.828 160.813 252.038 160.485 252.457C160.156 252.876 159.992 253.494 159.992 254.31V258.5H158.864V253.646C158.864 253.241 158.805 252.904 158.687 252.635C158.573 252.366 158.4 252.165 158.167 252.033C157.939 251.896 157.65 251.828 157.299 251.828C156.802 251.828 156.404 251.931 156.103 252.136C155.802 252.341 155.583 252.646 155.446 253.052C155.314 253.453 155.248 253.947 155.248 254.535V258.5H154.113V251.008H155.029L155.2 252.067H155.262C155.412 251.808 155.601 251.589 155.829 251.411C156.057 251.233 156.312 251.099 156.595 251.008C156.877 250.917 157.178 250.871 157.497 250.871C158.067 250.871 158.543 250.978 158.926 251.192C159.313 251.402 159.594 251.723 159.767 252.156H159.828C160.074 251.723 160.412 251.402 160.84 251.192C161.268 250.978 161.738 250.871 162.248 250.871ZM170.717 250.885C171.61 250.885 172.273 251.085 172.706 251.486C173.139 251.887 173.356 252.528 173.356 253.407V258.5H172.529L172.31 257.393H172.255C172.046 257.666 171.827 257.896 171.599 258.083C171.371 258.265 171.107 258.404 170.806 258.5C170.51 258.591 170.145 258.637 169.712 258.637C169.257 258.637 168.851 258.557 168.495 258.397C168.145 258.238 167.867 257.996 167.661 257.673C167.461 257.349 167.361 256.939 167.361 256.442C167.361 255.695 167.657 255.121 168.249 254.72C168.842 254.319 169.744 254.1 170.956 254.063L172.248 254.009V253.551C172.248 252.904 172.109 252.45 171.831 252.19C171.553 251.931 171.161 251.801 170.656 251.801C170.264 251.801 169.89 251.858 169.535 251.972C169.179 252.086 168.842 252.22 168.523 252.375L168.174 251.514C168.511 251.34 168.899 251.192 169.336 251.069C169.774 250.946 170.234 250.885 170.717 250.885ZM172.235 254.809L171.093 254.856C170.159 254.893 169.5 255.046 169.118 255.314C168.735 255.583 168.543 255.964 168.543 256.456C168.543 256.884 168.673 257.201 168.933 257.406C169.193 257.611 169.537 257.714 169.965 257.714C170.631 257.714 171.175 257.529 171.599 257.16C172.023 256.791 172.235 256.237 172.235 255.499V254.809ZM178.626 261.863C177.641 261.863 176.882 261.679 176.349 261.31C175.816 260.945 175.549 260.432 175.549 259.771C175.549 259.302 175.697 258.901 175.994 258.568C176.294 258.236 176.709 258.015 177.238 257.905C177.042 257.814 176.873 257.677 176.732 257.495C176.595 257.313 176.527 257.103 176.527 256.866C176.527 256.593 176.602 256.354 176.752 256.148C176.907 255.939 177.142 255.738 177.457 255.547C177.065 255.387 176.746 255.118 176.5 254.74C176.258 254.357 176.137 253.913 176.137 253.407C176.137 252.869 176.249 252.411 176.472 252.033C176.695 251.65 177.019 251.359 177.443 251.158C177.867 250.958 178.379 250.857 178.981 250.857C179.113 250.857 179.245 250.864 179.377 250.878C179.514 250.887 179.644 250.903 179.767 250.926C179.89 250.944 179.997 250.967 180.088 250.994H182.659V251.726L181.278 251.896C181.415 252.074 181.529 252.288 181.62 252.539C181.711 252.79 181.756 253.068 181.756 253.373C181.756 254.12 181.503 254.715 180.998 255.157C180.492 255.595 179.797 255.813 178.913 255.813C178.703 255.813 178.489 255.795 178.27 255.759C178.047 255.882 177.876 256.019 177.757 256.169C177.643 256.319 177.586 256.493 177.586 256.688C177.586 256.834 177.63 256.951 177.716 257.037C177.807 257.124 177.937 257.188 178.106 257.229C178.275 257.265 178.477 257.283 178.714 257.283H180.034C180.849 257.283 181.474 257.454 181.907 257.796C182.344 258.138 182.563 258.637 182.563 259.293C182.563 260.122 182.226 260.758 181.551 261.2C180.877 261.642 179.902 261.863 178.626 261.863ZM178.66 260.975C179.279 260.975 179.792 260.911 180.198 260.783C180.608 260.66 180.913 260.48 181.114 260.243C181.319 260.011 181.421 259.733 181.421 259.409C181.421 259.108 181.353 258.881 181.216 258.726C181.08 258.575 180.879 258.475 180.615 258.425C180.35 258.37 180.027 258.343 179.644 258.343H178.345C178.008 258.343 177.714 258.395 177.463 258.5C177.213 258.605 177.019 258.76 176.882 258.965C176.75 259.17 176.684 259.425 176.684 259.73C176.684 260.136 176.855 260.444 177.197 260.653C177.539 260.868 178.026 260.975 178.66 260.975ZM178.954 254.986C179.496 254.986 179.904 254.85 180.177 254.576C180.451 254.303 180.587 253.904 180.587 253.38C180.587 252.819 180.448 252.4 180.17 252.122C179.892 251.84 179.482 251.698 178.94 251.698C178.42 251.698 178.019 251.844 177.737 252.136C177.459 252.423 177.32 252.844 177.32 253.4C177.32 253.911 177.461 254.303 177.744 254.576C178.026 254.85 178.43 254.986 178.954 254.986ZM187.86 250.871C188.498 250.871 189.045 251.012 189.501 251.295C189.956 251.577 190.305 251.974 190.547 252.484C190.788 252.99 190.909 253.583 190.909 254.262V254.966H185.734C185.748 255.845 185.966 256.515 186.39 256.976C186.814 257.436 187.411 257.666 188.181 257.666C188.655 257.666 189.075 257.623 189.439 257.536C189.804 257.45 190.182 257.322 190.574 257.153V258.151C190.196 258.32 189.82 258.443 189.446 258.521C189.077 258.598 188.639 258.637 188.133 258.637C187.413 258.637 186.785 258.491 186.247 258.199C185.714 257.903 185.299 257.47 185.003 256.9C184.706 256.331 184.558 255.633 184.558 254.809C184.558 254.002 184.693 253.305 184.962 252.717C185.235 252.124 185.618 251.669 186.11 251.35C186.607 251.031 187.19 250.871 187.86 250.871ZM187.846 251.801C187.24 251.801 186.757 251.999 186.397 252.396C186.037 252.792 185.823 253.346 185.755 254.057H189.719C189.715 253.61 189.644 253.218 189.508 252.881C189.375 252.539 189.173 252.275 188.899 252.088C188.626 251.896 188.275 251.801 187.846 251.801ZM198.523 256.449C198.523 256.928 198.403 257.331 198.161 257.659C197.924 257.983 197.582 258.227 197.136 258.391C196.694 258.555 196.165 258.637 195.55 258.637C195.026 258.637 194.572 258.596 194.189 258.514C193.806 258.432 193.472 258.315 193.184 258.165V257.119C193.49 257.27 193.854 257.406 194.278 257.529C194.702 257.652 195.135 257.714 195.577 257.714C196.224 257.714 196.694 257.609 196.985 257.399C197.277 257.19 197.423 256.905 197.423 256.545C197.423 256.34 197.363 256.16 197.245 256.005C197.131 255.845 196.937 255.693 196.664 255.547C196.39 255.396 196.012 255.232 195.529 255.055C195.051 254.872 194.636 254.692 194.285 254.515C193.939 254.332 193.67 254.111 193.478 253.852C193.292 253.592 193.198 253.255 193.198 252.84C193.198 252.206 193.453 251.721 193.964 251.384C194.479 251.042 195.153 250.871 195.987 250.871C196.438 250.871 196.86 250.917 197.252 251.008C197.648 251.094 198.017 251.213 198.359 251.363L197.976 252.272C197.667 252.14 197.336 252.029 196.985 251.938C196.634 251.846 196.277 251.801 195.912 251.801C195.388 251.801 194.985 251.887 194.702 252.061C194.424 252.234 194.285 252.471 194.285 252.771C194.285 253.004 194.349 253.195 194.476 253.346C194.609 253.496 194.818 253.637 195.105 253.77C195.392 253.902 195.771 254.057 196.24 254.234C196.709 254.408 197.115 254.588 197.457 254.774C197.799 254.957 198.061 255.18 198.243 255.444C198.43 255.704 198.523 256.039 198.523 256.449ZM208.468 250.885C209.361 250.885 210.024 251.085 210.457 251.486C210.89 251.887 211.107 252.528 211.107 253.407V258.5H210.279L210.061 257.393H210.006C209.796 257.666 209.578 257.896 209.35 258.083C209.122 258.265 208.858 258.404 208.557 258.5C208.261 258.591 207.896 258.637 207.463 258.637C207.007 258.637 206.602 258.557 206.246 258.397C205.895 258.238 205.617 257.996 205.412 257.673C205.212 257.349 205.111 256.939 205.111 256.442C205.111 255.695 205.408 255.121 206 254.72C206.593 254.319 207.495 254.1 208.707 254.063L209.999 254.009V253.551C209.999 252.904 209.86 252.45 209.582 252.19C209.304 251.931 208.912 251.801 208.406 251.801C208.014 251.801 207.641 251.858 207.285 251.972C206.93 252.086 206.593 252.22 206.274 252.375L205.925 251.514C206.262 251.34 206.65 251.192 207.087 251.069C207.525 250.946 207.985 250.885 208.468 250.885ZM209.986 254.809L208.844 254.856C207.91 254.893 207.251 255.046 206.868 255.314C206.486 255.583 206.294 255.964 206.294 256.456C206.294 256.884 206.424 257.201 206.684 257.406C206.944 257.611 207.288 257.714 207.716 257.714C208.381 257.714 208.926 257.529 209.35 257.16C209.774 256.791 209.986 256.237 209.986 255.499V254.809ZM215.932 258.5L213.088 251.008H214.305L215.952 255.54C216.066 255.85 216.183 256.192 216.301 256.565C216.42 256.939 216.502 257.24 216.547 257.468H216.595C216.65 257.24 216.741 256.939 216.868 256.565C216.996 256.187 217.112 255.845 217.217 255.54L218.865 251.008H220.081L217.231 258.5H215.932ZM224.927 250.885C225.82 250.885 226.484 251.085 226.916 251.486C227.349 251.887 227.566 252.528 227.566 253.407V258.5H226.739L226.52 257.393H226.465C226.256 257.666 226.037 257.896 225.809 258.083C225.581 258.265 225.317 258.404 225.016 258.5C224.72 258.591 224.355 258.637 223.922 258.637C223.467 258.637 223.061 258.557 222.706 258.397C222.355 258.238 222.077 257.996 221.872 257.673C221.671 257.349 221.571 256.939 221.571 256.442C221.571 255.695 221.867 255.121 222.459 254.72C223.052 254.319 223.954 254.1 225.166 254.063L226.458 254.009V253.551C226.458 252.904 226.319 252.45 226.041 252.19C225.763 251.931 225.372 251.801 224.866 251.801C224.474 251.801 224.1 251.858 223.745 251.972C223.389 252.086 223.052 252.22 222.733 252.375L222.384 251.514C222.722 251.34 223.109 251.192 223.546 251.069C223.984 250.946 224.444 250.885 224.927 250.885ZM226.445 254.809L225.303 254.856C224.369 254.893 223.71 255.046 223.328 255.314C222.945 255.583 222.753 255.964 222.753 256.456C222.753 256.884 222.883 257.201 223.143 257.406C223.403 257.611 223.747 257.714 224.175 257.714C224.841 257.714 225.385 257.529 225.809 257.16C226.233 256.791 226.445 256.237 226.445 255.499V254.809ZM231.879 251.008V258.5H230.744V251.008H231.879ZM231.325 248.205C231.512 248.205 231.671 248.267 231.803 248.39C231.94 248.508 232.008 248.695 232.008 248.95C232.008 249.201 231.94 249.388 231.803 249.511C231.671 249.634 231.512 249.695 231.325 249.695C231.129 249.695 230.965 249.634 230.833 249.511C230.705 249.388 230.641 249.201 230.641 248.95C230.641 248.695 230.705 248.508 230.833 248.39C230.965 248.267 231.129 248.205 231.325 248.205ZM236.266 258.5H235.125V247.863H236.266V258.5ZM242.309 250.885C243.202 250.885 243.865 251.085 244.298 251.486C244.731 251.887 244.947 252.528 244.947 253.407V258.5H244.12L243.901 257.393H243.847C243.637 257.666 243.418 257.896 243.19 258.083C242.963 258.265 242.698 258.404 242.397 258.5C242.101 258.591 241.737 258.637 241.304 258.637C240.848 258.637 240.442 258.557 240.087 258.397C239.736 258.238 239.458 257.996 239.253 257.673C239.052 257.349 238.952 256.939 238.952 256.442C238.952 255.695 239.248 255.121 239.841 254.72C240.433 254.319 241.336 254.1 242.548 254.063L243.84 254.009V253.551C243.84 252.904 243.701 252.45 243.423 252.19C243.145 251.931 242.753 251.801 242.247 251.801C241.855 251.801 241.481 251.858 241.126 251.972C240.77 252.086 240.433 252.22 240.114 252.375L239.766 251.514C240.103 251.34 240.49 251.192 240.928 251.069C241.365 250.946 241.825 250.885 242.309 250.885ZM243.826 254.809L242.685 254.856C241.75 254.893 241.092 255.046 240.709 255.314C240.326 255.583 240.135 255.964 240.135 256.456C240.135 256.884 240.265 257.201 240.524 257.406C240.784 257.611 241.128 257.714 241.557 257.714C242.222 257.714 242.767 257.529 243.19 257.16C243.614 256.791 243.826 256.237 243.826 255.499V254.809ZM249.26 247.863V250.522C249.26 250.828 249.251 251.124 249.233 251.411C249.219 251.698 249.207 251.922 249.198 252.081H249.26C249.465 251.744 249.761 251.459 250.149 251.227C250.536 250.994 251.03 250.878 251.632 250.878C252.571 250.878 253.318 251.204 253.874 251.855C254.435 252.503 254.715 253.466 254.715 254.747C254.715 255.59 254.587 256.301 254.332 256.88C254.077 257.459 253.717 257.896 253.252 258.192C252.787 258.489 252.238 258.637 251.605 258.637C251.012 258.637 250.525 258.527 250.142 258.309C249.763 258.085 249.472 257.814 249.267 257.495H249.178L248.945 258.5H248.125V247.863H249.26ZM251.447 251.828C250.905 251.828 250.474 251.935 250.155 252.149C249.836 252.359 249.606 252.678 249.465 253.106C249.328 253.53 249.26 254.068 249.26 254.72V254.781C249.26 255.725 249.417 256.447 249.732 256.948C250.046 257.445 250.618 257.693 251.447 257.693C252.145 257.693 252.666 257.438 253.013 256.928C253.364 256.417 253.539 255.688 253.539 254.74C253.539 253.774 253.366 253.047 253.02 252.56C252.678 252.072 252.154 251.828 251.447 251.828ZM258.679 258.5H257.537V247.863H258.679V258.5ZM264.803 250.871C265.441 250.871 265.988 251.012 266.444 251.295C266.9 251.577 267.248 251.974 267.49 252.484C267.731 252.99 267.852 253.583 267.852 254.262V254.966H262.677C262.691 255.845 262.91 256.515 263.333 256.976C263.757 257.436 264.354 257.666 265.124 257.666C265.598 257.666 266.018 257.623 266.382 257.536C266.747 257.45 267.125 257.322 267.517 257.153V258.151C267.139 258.32 266.763 258.443 266.389 258.521C266.02 258.598 265.582 258.637 265.077 258.637C264.357 258.637 263.728 258.491 263.19 258.199C262.657 257.903 262.242 257.47 261.946 256.9C261.65 256.331 261.501 255.633 261.501 254.809C261.501 254.002 261.636 253.305 261.905 252.717C262.178 252.124 262.561 251.669 263.053 251.35C263.55 251.031 264.133 250.871 264.803 250.871ZM264.789 251.801C264.183 251.801 263.7 251.999 263.34 252.396C262.98 252.792 262.766 253.346 262.698 254.057H266.663C266.658 253.61 266.587 253.218 266.451 252.881C266.318 252.539 266.116 252.275 265.842 252.088C265.569 251.896 265.218 251.801 264.789 251.801Z" fill="black"/>
</svg>
