<svg width="122" height="49" viewBox="0 0 122 49" fill="none" xmlns="http://www.w3.org/2000/svg">
<path d="M16.544 36.48C14.4 36.48 12.68 35.688 11.384 34.104C10.104 32.52 9.32 30.288 9.032 27.408V36H0.224V35.832H3.296V0.167999H0.224V-2.86102e-06H9.032V22.512C9.32 19.616 10.104 17.392 11.384 15.84C12.664 14.272 14.384 13.488 16.544 13.488C18.288 13.488 19.936 13.944 21.488 14.856C23.04 15.768 24.296 17.08 25.256 18.792C26.232 20.504 26.72 22.56 26.72 24.96C26.72 27.36 26.232 29.424 25.256 31.152C24.296 32.864 23.04 34.184 21.488 35.112C19.936 36.024 18.288 36.48 16.544 36.48ZM15.368 35.928C16.472 35.928 17.368 35.48 18.056 34.584C18.744 33.688 19.256 32.424 19.592 30.792C19.928 29.144 20.096 27.2 20.096 24.96C20.096 22.72 19.928 20.784 19.592 19.152C19.256 17.52 18.744 16.264 18.056 15.384C17.368 14.488 16.472 14.04 15.368 14.04C14.264 14.04 13.224 14.448 12.248 15.264C11.288 16.064 10.512 17.272 9.92 18.888C9.328 20.504 9.032 22.528 9.032 24.96C9.032 27.392 9.328 29.424 9.92 31.056C10.512 32.672 11.288 33.888 12.248 34.704C13.224 35.52 14.264 35.928 15.368 35.928ZM38.129 14.088L46.121 30.144L43.001 37.128L31.385 14.088H28.841V13.92H42.401V14.088H38.129ZM56.729 13.92V14.088H53.153L39.497 45.408C39.065 46.336 38.569 47.088 38.009 47.664C37.465 48.24 36.681 48.528 35.657 48.528C35.145 48.528 34.633 48.408 34.121 48.168C33.625 47.944 33.209 47.592 32.873 47.112C32.537 46.648 32.369 46.056 32.369 45.336C32.369 44.68 32.513 44.104 32.801 43.608C33.105 43.112 33.513 42.72 34.025 42.432C34.537 42.16 35.113 42.024 35.753 42.024C36.361 42.024 36.929 42.184 37.457 42.504C37.985 42.84 38.409 43.288 38.729 43.848C39.049 44.424 39.169 45.08 39.089 45.816L52.937 14.088H48.449V13.92H56.729ZM74.5625 36.48L61.2185 -2.86102e-06H67.5305L77.7305 27.408L87.4025 -2.86102e-06H87.5945L74.7545 36.48H74.5625ZM61.3145 -2.86102e-06V35.832H65.0105V36H57.6665V35.832H61.1225V0.167999H57.4265V-2.86102e-06H61.3145ZM97.1705 -2.86102e-06V0.167999H93.8105V35.832H97.1705V36H83.6585V35.832H87.5225V-2.86102e-06H97.1705ZM111.535 36.48C109.359 36.48 107.399 36.032 105.655 35.136C103.911 34.224 102.535 32.912 101.527 31.2C100.519 29.488 100.015 27.408 100.015 24.96C100.015 22.512 100.503 20.432 101.479 18.72C102.471 17.008 103.823 15.704 105.535 14.808C107.247 13.896 109.199 13.44 111.391 13.44C113.775 13.44 115.719 13.92 117.223 14.88C118.743 15.824 119.863 17.064 120.583 18.6C121.303 20.136 121.663 21.776 121.663 23.52H103.231V23.352H115.351C115.351 22.344 115.303 21.28 115.207 20.16C115.127 19.04 114.951 17.984 114.679 16.992C114.423 15.984 114.031 15.168 113.503 14.544C112.975 13.92 112.271 13.608 111.391 13.608C110.431 13.608 109.631 13.928 108.991 14.568C108.351 15.192 107.847 16.04 107.479 17.112C107.127 18.168 106.871 19.352 106.711 20.664C106.567 21.96 106.495 23.296 106.495 24.672C106.495 26.144 106.575 27.568 106.735 28.944C106.911 30.32 107.207 31.552 107.623 32.64C108.055 33.712 108.655 34.568 109.423 35.208C110.191 35.848 111.175 36.168 112.375 36.168C114.727 36.168 116.695 35.496 118.279 34.152C119.863 32.808 120.951 31.152 121.543 29.184H121.735C121.111 31.248 119.959 32.984 118.279 34.392C116.599 35.784 114.351 36.48 111.535 36.48Z" fill="black"/>
</svg>
